HIERARCHY
ROOT Hips
{
	OFFSET 0.000000 97.420761 0.000000
	CHANNELS 6 Xposition Yposition Zposition Xrotation Yrotation Zrotation
	JOINT RightUpLeg
	{
		OFFSET -8.571318 0.002251 -0.000250
		CHANNELS 6 Xposition Yposition Zposition Xrotation Yrotation Zrotation
		JOINT RightLeg
		{
			OFFSET 0.000000 -44.326080 -0.000105
			CHANNELS 6 Xposition Yposition Zposition Xrotation Yrotation Zrotation
			JOINT RightFoot
			{
				OFFSET 0.000000 -43.324329 -0.000176
				CHANNELS 6 Xposition Yposition Zposition Xrotation Yrotation Zrotation
				JOINT RightToeBase
				{
					OFFSET 0.000000 -7.938133 18.050686
					CHANNELS 6 Xposition Yposition Zposition Xrotation Yrotation Zrotation
					End Site
					{
						OFFSET 0.000000 0.000000 19.719055
					}
				}
			}
		}
	}
	JOINT LeftUpLeg
	{
		OFFSET 8.571318 -0.000084 0.000009
		CHANNELS 6 Xposition Yposition Zposition Xrotation Yrotation Zrotation
		JOINT LeftLeg
		{
			OFFSET 0.000000 -44.326080 -0.000105
			CHANNELS 6 Xposition Yposition Zposition Xrotation Yrotation Zrotation
			JOINT LeftFoot
			{
				OFFSET 0.000000 -43.324329 -0.000176
				CHANNELS 6 Xposition Yposition Zposition Xrotation Yrotation Zrotation
				JOINT LeftToeBase
				{
					OFFSET 0.000000 -7.938133 18.050686
					CHANNELS 6 Xposition Yposition Zposition Xrotation Yrotation Zrotation
					End Site
					{
						OFFSET 0.000000 0.000000 19.719055
					}
				}
			}
		}
	}
	JOINT Spine
	{
		OFFSET 0.000000 10.422829 -1.158092
		CHANNELS 6 Xposition Yposition Zposition Xrotation Yrotation Zrotation
		JOINT Spine1
		{
			OFFSET 0.000000 11.587624 0.000000
			CHANNELS 3 Xrotation Yrotation Zrotation
			JOINT Spine2
			{
				OFFSET 0.000000 10.579559 -0.000443
				CHANNELS 6 Xposition Yposition Zposition Xrotation Yrotation Zrotation
				JOINT Spine3
				{
					OFFSET 0.000000 10.567749 -0.000444
					CHANNELS 6 Xposition Yposition Zposition Xrotation Yrotation Zrotation
					JOINT LeftShoulder
					{
						OFFSET 3.218383 8.290512 0.000000
						CHANNELS 6 Xposition Yposition Zposition Xrotation Yrotation Zrotation
						JOINT LeftArm
						{
							OFFSET 15.038529 0.000000 0.000000
							CHANNELS 3 Xrotation Yrotation Zrotation
							JOINT LeftForeArm
							{
								OFFSET 32.129166 0.000000 0.000000
								CHANNELS 3 Xrotation Yrotation Zrotation
								JOINT LeftHand
								{
									OFFSET 26.275406 0.000000 0.000000
									CHANNELS 3 Xrotation Yrotation Zrotation
									End Site
									{
										OFFSET 26.275406 0.000000 0.000000
									}
								}
							}
						}
					}
					JOINT RightShoulder
					{
						OFFSET -3.218383 8.290512 0.000000
						CHANNELS 6 Xposition Yposition Zposition Xrotation Yrotation Zrotation
						JOINT RightArm
						{
							OFFSET -15.038529 0.000000 0.000000
							CHANNELS 3 Xrotation Yrotation Zrotation
							JOINT RightForeArm
							{
								OFFSET -32.129166 0.000000 0.000000
								CHANNELS 3 Xrotation Yrotation Zrotation
								JOINT RightHand
								{
									OFFSET -26.275406 0.000000 0.000000
									CHANNELS 3 Xrotation Yrotation Zrotation
									End Site
									{
										OFFSET -26.275406 0.000000 0.000000
									}
								}
							}
						}
					}
					JOINT Neck
					{
						OFFSET 0.000000 14.789474 0.000000
						CHANNELS 6 Xposition Yposition Zposition Xrotation Yrotation Zrotation
						JOINT Head
						{
							OFFSET 0.000000 9.838806 0.000953
							CHANNELS 6 Xposition Yposition Zposition Xrotation Yrotation Zrotation
							End Site
							{
								OFFSET 0.000000 9.838806 0.000000
							}
						}
					}
				}
			}
		}
	}
}
MOTION
Frames: 9
Frame Time: 0.016667
0.000000 97.420761 0.000000 -0.000000 0.000000 -0.000000 -8.571318 0.002251 -0.000250 -0.000000 0.000000 -0.000000 0.000000 -44.326080 -0.000105 -0.000000 0.000000 -0.000000 0.000000 -43.324329 -0.000176 -0.000000 0.000000 -0.000000 0.000000 -7.938133 18.050686 -0.000000 0.000000 -0.000000 8.571318 -0.000084 0.000009 -0.000000 0.000000 -0.000000 0.000000 -44.326080 -0.000105 -0.000000 0.000000 -0.000000 0.000000 -43.324329 -0.000176 -0.000000 0.000000 -0.000000 0.000000 -7.938133 18.050686 -0.000000 0.000000 -0.000000 0.000000 10.422829 -1.158092 -0.000000 0.000000 -0.000000 -0.000000 0.000000 -0.000000 0.000000 10.579559 -0.000443 -0.000000 0.000000 -0.000000 0.000000 10.567749 -0.000444 -0.000000 0.000000 -0.000000 3.218383 8.290512 0.000000 -0.000000 0.000000 -0.000000 -0.000000 0.000000 -0.000000 -0.000000 0.000000 -0.000000 -0.000000 0.000000 -0.000000 -3.218383 8.290512 0.000000 -0.000000 0.000000 -0.000000 -0.000000 0.000000 -0.000000 -0.000000 0.000000 -0.000000 -0.000000 0.000000 -0.000000 0.000000 14.789474 0.000000 -0.000000 0.000000 -0.000000 0.000000 9.838806 0.000953 -0.000000 0.000000 -0.000000 
60.669029 97.608116 75.308372 2.124365 42.832280 0.306723 -8.571319 0.002264 -0.000249 0.984593 5.654017 -3.664095 -0.000007 -44.326073 -0.000095 2.052601 0.881103 0.972224 0.000002 -43.324329 -0.000179 -4.658540 -4.379110 0.179717 -0.000001 -7.938131 18.050686 -0.000000 -0.000002 -0.000000 8.571315 -0.000079 0.000013 -1.920788 -6.216670 -0.307244 -0.000000 -44.326073 -0.000097 10.590330 2.057732 1.879013 0.000003 -43.324329 -0.000184 -4.233518 20.170083 -3.854861 -0.000006 -7.938132 18.050682 -4.267786 0.064200 -1.792662 -0.000003 10.422836 -1.158086 2.658845 -1.220612 -0.563143 -4.529175 -0.510677 -0.310171 0.000005 10.579556 -0.000437 1.177152 -0.510327 -0.310727 -0.000006 10.567750 -0.000444 6.605525 -0.403773 -0.194398 3.218387 8.290499 -0.000003 -1.322870 -3.961961 -7.235909 -11.251128 -6.594006 -79.334969 -0.937699 -5.589995 -1.562964 0.595303 2.355215 -4.219204 -3.218381 8.290507 -0.000001 -2.151717 -0.346244 9.516843 -16.140452 9.828730 76.307939 3.435412 4.359808 3.833097 0.322255 -3.401055 5.140379 -0.000001 14.789482 -0.000002 14.279909 -8.283321 7.341140 -0.000004 9.838801 0.000958 -8.129430 -17.762882 10.448873 
61.901241 97.555580 76.751602 2.325246 43.729620 0.196813 -8.571321 0.002256 -0.000248 0.874098 5.672639 -3.839823 -0.000008 -44.326084 -0.000097 2.119133 0.984476 1.153830 0.000007 -43.324329 -0.000175 -4.760195 -4.531282 0.078775 0.000001 -7.938133 18.050680 -0.000000 0.000000 -0.000000 8.571317 -0.000075 0.000014 -2.005128 -6.424154 -0.609667 -0.000004 -44.326073 -0.000102 10.665407 2.387798 2.559338 -0.000004 -43.324326 -0.000179 -4.265691 20.381056 -4.298868 0.000005 -7.938132 18.050688 -4.291435 0.065948 -1.796762 -0.000004 10.422831 -1.158090 2.665826 -1.271051 -0.520568 -4.640383 -0.534782 -0.294458 -0.000005 10.579553 -0.000427 1.180049 -0.534754 -0.294513 0.000006 10.567727 -0.000454 6.722087 -0.420971 -0.180076 3.218378 8.290530 -0.000006 -1.371720 -4.013911 -7.414989 -11.492335 -6.548595 -80.877725 -0.972641 -5.701298 -1.591094 0.611078 2.424304 -4.296633 -3.218383 8.290507 -0.000000 -2.195784 -0.295667 9.524193 -16.609741 9.703065 77.777379 3.501554 4.407542 3.916789 0.333076 -3.495015 5.255043 -0.000007 14.789487 -0.000003 14.570375 -8.442935 7.460113 0.000004 9.838841 0.000959 -8.285958 -18.138073 10.540798 
61.915501 97.503632 76.693008 2.476419 43.790136 0.093032 -8.571317 0.002252 -0.000255 0.737338 5.582413 -3.928921 -0.000002 -44.326061 -0.000103 2.148208 1.063954 1.306484 -0.000003 -43.324322 -0.000168 -4.780270 -4.594881 -0.015588 -0.000012 -7.938133 18.050697 -0.000000 0.000001 0.000000 8.571320 -0.000084 0.000007 -2.053932 -6.508231 -0.890161 0.000001 -44.326080 -0.000114 10.522494 2.666294 3.172292 0.000002 -43.324333 -0.000170 -4.228863 20.186380 -4.652931 -0.000002 -7.938131 18.050688 -4.211146 0.064283 -1.760001 -0.000002 10.422831 -1.158101 2.620128 -1.296634 -0.465032 -4.660845 -0.548964 -0.271115 -0.000005 10.579566 -0.000434 1.159586 -0.548936 -0.271172 0.000006 10.567739 -0.000450 6.706740 -0.429833 -0.161583 3.218377 8.290523 0.000009 -1.389342 -3.988489 -7.448037 -11.474333 -6.553525 -80.943950 -0.994312 -5.703326 -1.589740 0.612458 2.446050 -4.290328 -3.218392 8.290514 0.000011 -2.198911 -0.233957 9.343142 -16.701933 9.628753 77.808607 3.500233 4.363404 3.923913 0.334891 -3.522926 5.267572 -0.000004 14.789474 0.000009 14.563121 -8.456842 7.413236 0.000005 9.838808 0.000952 -8.309052 -18.146955 10.447173 
61.919353 97.468658 76.652367 2.603780 43.840187 -0.006138 -8.571310 0.002253 -0.000255 0.619554 5.513264 -3.981760 -0.000001 -44.326073 -0.000114 2.178663 1.120552 1.416161 0.000014 -43.324333 -0.000170 -4.816951 -4.646533 -0.082684 -0.000005 -7.938132 18.050686 -0.000000 0.000000 -0.000000 8.571318 -0.000086 0.000006 -2.100401 -6.578796 -1.100604 -0.000003 -44.326080 -0.000113 10.395918 2.886594 3.621054 -0.000001 -43.324326 -0.000180 -4.205917 20.019816 -4.902366 -0.000004 -7.938132 18.050682 -4.110423 0.061522 -1.719612 0.000006 10.422819 -1.158092 2.582882 -1.317546 -0.415158 -4.677542 -0.560773 -0.250053 -0.000006 10.579564 -0.000448 1.142890 -0.560748 -0.250111 0.000007 10.567761 -0.000465 6.694215 -0.437087 -0.144972 3.218383 8.290494 -0.000008 -1.403683 -3.967707 -7.474556 -11.456497 -6.567416 -80.992178 -1.027151 -5.708620 -1.593859 0.612697 2.463731 -4.287028 -3.218375 8.290482 -0.000012 -2.203961 -0.182317 9.196253 -16.778261 9.570227 77.836556 3.496489 4.321998 3.925068 0.337590 -3.548913 5.279489 0.000004 14.789465 -0.000016 14.556813 -8.467161 7.378150 -0.000005 9.838805 0.000946 -8.327958 -18.153482 10.377023 
61.917328 97.442268 76.620834 2.720893 43.885506 -0.105185 -8.571308 0.002250 -0.000256 0.509664 5.454715 -4.014966 0.000003 -44.326069 -0.000096 2.210631 1.164747 1.503653 -0.000007 -43.324329 -0.000165 -4.864069 -4.692178 -0.135619 0.000003 -7.938132 18.050690 0.000000 -0.000001 0.000000 8.571320 -0.000087 0.000009 -2.146455 -6.643335 -1.274922 0.000000 -44.326088 -0.000095 10.275709 3.078347 3.986324 -0.000009 -43.324329 -0.000173 -4.190345 19.866102 -5.098141 -0.000000 -7.938130 18.050692 -3.996617 0.058187 -1.676860 0.000002 10.422818 -1.158095 2.549634 -1.336291 -0.367260 -4.692458 -0.571514 -0.229760 -0.000007 10.579553 -0.000444 1.127974 -0.571487 -0.229819 0.000004 10.567765 -0.000461 6.683022 -0.443603 -0.129015 3.218378 8.290504 -0.000014 -1.417026 -3.948927 -7.498253 -11.438347 -6.585933 -81.031602 -1.065682 -5.716041 -1.601034 0.612087 2.478958 -4.285194 -3.218386 8.290501 -0.000008 -2.210342 -0.134892 9.065182 -16.847403 9.519141 77.863241 3.491145 4.281516 3.923110 0.340726 -3.574367 5.291430 -0.000005 14.789464 -0.000010 14.550772 -8.475955 7.348870 0.000000 9.838819 0.000950 -8.345227 -18.159315 10.318295 
61.913319 97.417320 76.591347 2.836857 43.929997 -0.205572 -8.571311 0.002243 -0.000245 0.400854 5.400496 -4.040748 -0.000006 -44.326065 -0.000108 2.243182 1.201553 1.582952 0.000004 -43.324326 -0.000163 -4.915546 -4.734119 -0.183045 0.000007 -7.938132 18.050669 -0.000000 0.000004 0.000000 8.571321 -0.000095 0.000010 -2.191794 -6.706470 -1.432378 0.000000 -44.326080 -0.000110 10.155703 3.259147 4.323412 -0.000002 -43.324326 -0.000190 -4.177672 19.719803 -5.277455 0.000002 -7.938132 18.050676 -3.882588 0.054983 -1.636255 0.000001 10.422816 -1.158083 2.517792 -1.354416 -0.319342 -4.706753 -0.581972 -0.209429 0.000001 10.579569 -0.000450 1.113678 -0.581950 -0.209489 -0.000000 10.567763 -0.000448 6.672294 -0.449898 -0.113049 3.218377 8.290533 -0.000002 -1.432811 -3.929785 -7.522542 -11.419844 -6.602006 -81.069783 -1.099047 -5.724969 -1.608416 0.610111 2.490633 -4.282970 -3.218385 8.290508 -0.000004 -2.217782 -0.087013 8.937597 -16.914788 9.469425 77.888991 3.484615 4.242819 3.921440 0.343362 -3.599554 5.303884 0.000001 14.789479 0.000000 14.544082 -8.485677 7.320887 -0.000010 9.838784 0.000963 -8.363467 -18.167332 10.261552 
61.908848 97.395081 76.565887 2.938201 43.968352 -0.293959 -8.571319 0.002239 -0.000256 0.306064 5.358686 -4.057972 -0.000000 -44.326073 -0.000093 2.272194 1.225856 1.646170 0.000001 -43.324329 -0.000159 -4.963898 -4.767360 -0.221617 -0.000006 -7.938132 18.050684 -0.000000 -0.000000 -0.000000 8.571315 -0.000086 0.000008 -2.229839 -6.759877 -1.554077 -0.000006 -44.326077 -0.000105 10.051549 3.407728 4.599218 -0.000007 -43.324322 -0.000178 -4.168089 19.600730 -5.424967 0.000006 -7.938133 18.050678 -3.789249 0.052584 -1.606208 -0.000004 10.422826 -1.158096 2.491082 -1.369505 -0.277474 -4.718754 -0.590772 -0.191627 -0.000004 10.579556 -0.000430 1.101679 -0.590751 -0.191688 0.000002 10.567751 -0.000452 6.663289 -0.455145 -0.099098 3.218388 8.290524 0.000003 -1.451787 -3.912108 -7.545226 -11.402268 -6.609102 -81.103640 -1.115202 -5.734588 -1.613933 0.606131 2.495082 -4.279975 -3.218381 8.290516 0.000003 -2.225279 -0.044138 8.827751 -16.971738 9.426853 77.910356 3.476841 4.212493 3.921332 0.344687 -3.620820 5.315597 0.000006 14.789479 0.000002 14.537395 -8.496516 7.297097 -0.000004 9.838800 0.000962 -8.380862 -18.178931 10.212260 
61.902687 97.375565 76.544006 3.031828 44.003466 -0.377848 -8.571314 0.002247 -0.000250 0.218479 5.324189 -4.066511 0.000005 -44.326080 -0.000111 2.299954 1.240744 1.696945 -0.000001 -43.324326 -0.000170 -5.013471 -4.794564 -0.252116 -0.000001 -7.938132 18.050684 -0.000000 -0.000002 -0.000000 8.571316 -0.000080 0.000011 -2.264514 -6.808267 -1.650270 -0.000004 -44.326077 -0.000111 9.955290 3.535787 4.828403 -0.000006 -43.324322 -0.000177 -4.161704 19.497212 -5.546491 0.000010 -7.938131 18.050674 -3.702544 0.050456 -1.580704 0.000004 10.422832 -1.158086 2.467562 -1.382957 -0.238302 -4.729330 -0.598706 -0.174940 -0.000001 10.579570 -0.000443 1.091104 -0.598689 -0.175002 0.000001 10.567743 -0.000441 6.655350 -0.459831 -0.086043 3.218384 8.290531 -0.000010 -1.472369 -3.895131 -7.567171 -11.385379 -6.612673 -81.134212 -1.124060 -5.745200 -1.619158 0.600890 2.495296 -4.276691 -3.218382 8.290530 -0.000008 -2.233462 -0.003484 8.728480 -17.023193 9.388421 77.929385 3.468266 4.186200 3.921684 0.345334 -3.640371 5.327113 -0.000003 14.789489 -0.000001 14.530428 -8.507775 7.276126 -0.000001 9.838818 0.000961 -8.398251 -18.192328 10.168028 
